<svg width="25" height="25" viewBox="0 0 25 25" fill="none" xmlns="http://www.w3.org/2000/svg">
<path d="M12.5 19.2708C12.934 19.2708 13.3028 19.1187 13.6062 18.8146C13.9104 18.5111 14.0625 18.1424 14.0625 17.7083H10.9375C10.9375 18.1424 11.0896 18.5111 11.3937 18.8146C11.6972 19.1187 12.066 19.2708 12.5 19.2708ZM7.29165 16.6667H17.7083V14.5833H16.6666V11.875C16.6666 10.816 16.3934 9.84791 15.8469 8.97083C15.2996 8.09444 14.5312 7.53472 13.5416 7.29166V6.77083C13.5416 6.47569 13.442 6.22812 13.2427 6.02812C13.0427 5.82881 12.7951 5.72916 12.5 5.72916C12.2048 5.72916 11.9576 5.82881 11.7583 6.02812C11.5583 6.22812 11.4583 6.47569 11.4583 6.77083V7.29166C10.4687 7.53472 9.70067 8.09444 9.15415 8.97083C8.60692 9.84791 8.33331 10.816 8.33331 11.875V14.5833H7.29165V16.6667ZM12.5 22.9167C11.059 22.9167 9.70484 22.643 8.43748 22.0958C7.17012 21.5493 6.06769 20.8073 5.13019 19.8698C4.19269 18.9323 3.45067 17.8299 2.90415 16.5625C2.35692 15.2951 2.08331 13.941 2.08331 12.5C2.08331 11.059 2.35692 9.70486 2.90415 8.4375C3.45067 7.17013 4.19269 6.0677 5.13019 5.1302C6.06769 4.1927 7.17012 3.45034 8.43748 2.90312C9.70484 2.35659 11.059 2.08333 12.5 2.08333C13.941 2.08333 15.2951 2.35659 16.5625 2.90312C17.8298 3.45034 18.9323 4.1927 19.8698 5.1302C20.8073 6.0677 21.5493 7.17013 22.0958 8.4375C22.643 9.70486 22.9166 11.059 22.9166 12.5C22.9166 13.941 22.643 15.2951 22.0958 16.5625C21.5493 17.8299 20.8073 18.9323 19.8698 19.8698C18.9323 20.8073 17.8298 21.5493 16.5625 22.0958C15.2951 22.643 13.941 22.9167 12.5 22.9167Z" fill="black"/>
</svg>
