<svg width="173" height="50" viewBox="0 0 173 50" fill="none" xmlns="http://www.w3.org/2000/svg">
<mask id="path-1-inside-1_1_9" fill="white">
<rect width="50" height="50" rx="5"/>
</mask>
<rect width="50" height="50" rx="5" fill="#E19133" stroke="#5496F9" stroke-opacity="0.29" stroke-width="16" mask="url(#path-1-inside-1_1_9)"/>
<path d="M68.7784 14.6364C68.7784 15.5881 68.598 16.3977 68.2372 17.0653C67.8793 17.733 67.3906 18.2429 66.7713 18.5952C66.1548 18.9446 65.4616 19.1193 64.6918 19.1193C63.9162 19.1193 63.2202 18.9432 62.6037 18.5909C61.9872 18.2386 61.5 17.7287 61.142 17.0611C60.7841 16.3935 60.6051 15.5852 60.6051 14.6364C60.6051 13.6847 60.7841 12.875 61.142 12.2074C61.5 11.5398 61.9872 11.0312 62.6037 10.6818C63.2202 10.3295 63.9162 10.1534 64.6918 10.1534C65.4616 10.1534 66.1548 10.3295 66.7713 10.6818C67.3906 11.0312 67.8793 11.5398 68.2372 12.2074C68.598 12.875 68.7784 13.6847 68.7784 14.6364ZM66.9077 14.6364C66.9077 14.0199 66.8153 13.5 66.6307 13.0767C66.4489 12.6534 66.1918 12.3324 65.8594 12.1136C65.527 11.8949 65.1378 11.7855 64.6918 11.7855C64.2457 11.7855 63.8565 11.8949 63.5241 12.1136C63.1918 12.3324 62.9332 12.6534 62.7486 13.0767C62.5668 13.5 62.4759 14.0199 62.4759 14.6364C62.4759 15.2528 62.5668 15.7727 62.7486 16.196C62.9332 16.6193 63.1918 16.9403 63.5241 17.1591C63.8565 17.3778 64.2457 17.4872 64.6918 17.4872C65.1378 17.4872 65.527 17.3778 65.8594 17.1591C66.1918 16.9403 66.4489 16.6193 66.6307 16.196C66.8153 15.7727 66.9077 15.2528 66.9077 14.6364ZM70.1112 19V12.4545H71.8711V13.5966H71.9393C72.0586 13.1903 72.2589 12.8835 72.5401 12.6761C72.8214 12.4659 73.1452 12.3608 73.5117 12.3608C73.6026 12.3608 73.7006 12.3665 73.8058 12.3778C73.9109 12.3892 74.0032 12.4048 74.0827 12.4247V14.0355C73.9975 14.0099 73.8796 13.9872 73.729 13.9673C73.5785 13.9474 73.4407 13.9375 73.3157 13.9375C73.0487 13.9375 72.81 13.9957 72.5998 14.1122C72.3924 14.2259 72.2276 14.3849 72.1055 14.5895C71.9862 14.794 71.9265 15.0298 71.9265 15.2969V19H70.1112ZM76.7003 19.1236C76.2827 19.1236 75.9105 19.0511 75.5838 18.9062C75.2571 18.7585 74.9986 18.5412 74.8082 18.2543C74.6207 17.9645 74.527 17.6037 74.527 17.1719C74.527 16.8082 74.5938 16.5028 74.7273 16.2557C74.8608 16.0085 75.0426 15.8097 75.2727 15.6591C75.5028 15.5085 75.7642 15.3949 76.0568 15.3182C76.3523 15.2415 76.6619 15.1875 76.9858 15.1562C77.3665 15.1165 77.6733 15.0795 77.9062 15.0455C78.1392 15.0085 78.3082 14.9545 78.4134 14.8835C78.5185 14.8125 78.571 14.7074 78.571 14.5682V14.5426C78.571 14.2727 78.4858 14.0639 78.3153 13.9162C78.1477 13.7685 77.9091 13.6946 77.5994 13.6946C77.2727 13.6946 77.0128 13.767 76.8196 13.9119C76.6264 14.054 76.4986 14.233 76.4361 14.4489L74.7571 14.3125C74.8423 13.9148 75.0099 13.571 75.2599 13.2812C75.5099 12.9886 75.8324 12.7642 76.2273 12.608C76.625 12.4489 77.0852 12.3693 77.608 12.3693C77.9716 12.3693 78.3196 12.4119 78.652 12.4972C78.9872 12.5824 79.2841 12.7145 79.5426 12.8935C79.804 13.0724 80.0099 13.3026 80.1605 13.5838C80.3111 13.8622 80.3864 14.196 80.3864 14.5852V19H78.6648V18.0923H78.6136C78.5085 18.2969 78.3679 18.4773 78.1918 18.6335C78.0156 18.7869 77.804 18.9077 77.5568 18.9957C77.3097 19.081 77.0241 19.1236 76.7003 19.1236ZM77.2202 17.8707C77.4872 17.8707 77.723 17.8182 77.9276 17.7131C78.1321 17.6051 78.2926 17.4602 78.4091 17.2784C78.5256 17.0966 78.5838 16.8906 78.5838 16.6605V15.9659C78.527 16.0028 78.4489 16.0369 78.3494 16.0682C78.2528 16.0966 78.1435 16.1236 78.0213 16.1491C77.8991 16.1719 77.777 16.1932 77.6548 16.2131C77.5327 16.2301 77.4219 16.2457 77.3224 16.2599C77.1094 16.2912 76.9233 16.3409 76.7642 16.4091C76.6051 16.4773 76.4815 16.5696 76.3935 16.6861C76.3054 16.7997 76.2614 16.9418 76.2614 17.1122C76.2614 17.3594 76.3509 17.5483 76.5298 17.679C76.7116 17.8068 76.9418 17.8707 77.2202 17.8707ZM83.6101 15.2159V19H81.7947V12.4545H83.5249V13.6094H83.6016C83.7464 13.2287 83.9893 12.9276 84.3303 12.706C84.6712 12.4815 85.0845 12.3693 85.5703 12.3693C86.0249 12.3693 86.4212 12.4688 86.7592 12.6676C87.0973 12.8665 87.3601 13.1506 87.5476 13.5199C87.7351 13.8864 87.8288 14.3239 87.8288 14.8324V19H86.0135V15.1562C86.0163 14.7557 85.9141 14.4432 85.7067 14.2188C85.4993 13.9915 85.2138 13.8778 84.8501 13.8778C84.6058 13.8778 84.3899 13.9304 84.2024 14.0355C84.0178 14.1406 83.8729 14.294 83.7678 14.4957C83.6655 14.6946 83.6129 14.9347 83.6101 15.2159ZM92.2085 21.5909C91.6204 21.5909 91.1161 21.5099 90.6957 21.348C90.2781 21.1889 89.9457 20.9716 89.6985 20.696C89.4513 20.4205 89.2908 20.1108 89.217 19.767L90.896 19.5412C90.9471 19.6719 91.0281 19.794 91.1388 19.9077C91.2496 20.0213 91.396 20.1122 91.5778 20.1804C91.7624 20.2514 91.9869 20.2869 92.2511 20.2869C92.646 20.2869 92.9712 20.1903 93.2269 19.9972C93.4854 19.8068 93.6147 19.4872 93.6147 19.0384V17.8409H93.538C93.4585 18.0227 93.3391 18.1946 93.18 18.3565C93.021 18.5185 92.8164 18.6506 92.5664 18.7528C92.3164 18.8551 92.0181 18.9062 91.6715 18.9062C91.18 18.9062 90.7326 18.7926 90.3292 18.5653C89.9286 18.3352 89.609 17.9844 89.3704 17.5128C89.1346 17.0384 89.0167 16.4389 89.0167 15.7145C89.0167 14.973 89.1374 14.3537 89.3789 13.8565C89.6204 13.3594 89.9414 12.9872 90.342 12.7401C90.7454 12.4929 91.1871 12.3693 91.6673 12.3693C92.0337 12.3693 92.3406 12.4318 92.5877 12.5568C92.8349 12.679 93.0337 12.8324 93.1843 13.017C93.3377 13.1989 93.4556 13.3778 93.538 13.554H93.6062V12.4545H95.4087V19.0639C95.4087 19.6207 95.2724 20.0866 94.9996 20.4616C94.7269 20.8366 94.3491 21.1179 93.8661 21.3054C93.386 21.4957 92.8335 21.5909 92.2085 21.5909ZM92.2468 17.5426C92.5394 17.5426 92.7866 17.4702 92.9883 17.3253C93.1928 17.1776 93.3491 16.9673 93.457 16.6946C93.5678 16.419 93.6232 16.0895 93.6232 15.706C93.6232 15.3224 93.5692 14.9901 93.4613 14.7088C93.3533 14.4247 93.1971 14.2045 92.9925 14.0483C92.788 13.892 92.5394 13.8139 92.2468 13.8139C91.9485 13.8139 91.6971 13.8949 91.4925 14.0568C91.288 14.2159 91.1332 14.4375 91.0281 14.7216C90.9229 15.0057 90.8704 15.3338 90.8704 15.706C90.8704 16.0838 90.9229 16.4105 91.0281 16.6861C91.136 16.9588 91.2908 17.1705 91.4925 17.321C91.6971 17.4687 91.9485 17.5426 92.2468 17.5426ZM99.8363 19.1278C99.163 19.1278 98.5835 18.9915 98.0977 18.7188C97.6147 18.4432 97.2425 18.054 96.9812 17.5511C96.7198 17.0455 96.5891 16.4474 96.5891 15.7571C96.5891 15.0838 96.7198 14.4929 96.9812 13.9844C97.2425 13.4759 97.6104 13.0795 98.0849 12.7955C98.5621 12.5114 99.1218 12.3693 99.7638 12.3693C100.196 12.3693 100.598 12.4389 100.97 12.5781C101.345 12.7145 101.672 12.9205 101.95 13.196C102.231 13.4716 102.45 13.8182 102.606 14.2358C102.762 14.6506 102.841 15.1364 102.841 15.6932V16.1918H97.3136V15.0668H101.132C101.132 14.8054 101.075 14.5739 100.961 14.3722C100.848 14.1705 100.69 14.0128 100.488 13.8991C100.289 13.7827 100.058 13.7244 99.7937 13.7244C99.5181 13.7244 99.2738 13.7884 99.0607 13.9162C98.8505 14.0412 98.6857 14.2102 98.5664 14.4233C98.4471 14.6335 98.386 14.8679 98.3832 15.1264V16.196C98.3832 16.5199 98.4428 16.7997 98.5621 17.0355C98.6843 17.2713 98.8562 17.4531 99.0778 17.581C99.2994 17.7088 99.5621 17.7727 99.8661 17.7727C100.068 17.7727 100.252 17.7443 100.42 17.6875C100.588 17.6307 100.731 17.5455 100.85 17.4318C100.97 17.3182 101.061 17.179 101.123 17.0142L102.802 17.125C102.717 17.5284 102.542 17.8807 102.278 18.1818C102.017 18.4801 101.679 18.7131 101.264 18.8807C100.852 19.0455 100.376 19.1278 99.8363 19.1278ZM105.414 19L102.917 10.2727H104.933L106.377 16.3366H106.45L108.044 10.2727H109.77L111.359 16.3494H111.436L112.88 10.2727H114.896L112.399 19H110.6L108.939 13.294H108.87L107.213 19H105.414ZM117.665 15.2159V19H115.849V10.2727H117.614V13.6094H117.69C117.838 13.223 118.077 12.9205 118.406 12.7017C118.736 12.4801 119.149 12.3693 119.646 12.3693C120.101 12.3693 120.497 12.4688 120.835 12.6676C121.176 12.8636 121.44 13.1463 121.628 13.5156C121.818 13.8821 121.912 14.321 121.909 14.8324V19H120.094V15.1562C120.097 14.7528 119.994 14.4389 119.787 14.2145C119.582 13.9901 119.295 13.8778 118.926 13.8778C118.679 13.8778 118.46 13.9304 118.27 14.0355C118.082 14.1406 117.935 14.294 117.827 14.4957C117.722 14.6946 117.668 14.9347 117.665 15.2159ZM125.204 19.1236C124.787 19.1236 124.414 19.0511 124.088 18.9062C123.761 18.7585 123.502 18.5412 123.312 18.2543C123.125 17.9645 123.031 17.6037 123.031 17.1719C123.031 16.8082 123.098 16.5028 123.231 16.2557C123.365 16.0085 123.547 15.8097 123.777 15.6591C124.007 15.5085 124.268 15.3949 124.561 15.3182C124.856 15.2415 125.166 15.1875 125.49 15.1562C125.87 15.1165 126.177 15.0795 126.41 15.0455C126.643 15.0085 126.812 14.9545 126.917 14.8835C127.022 14.8125 127.075 14.7074 127.075 14.5682V14.5426C127.075 14.2727 126.99 14.0639 126.819 13.9162C126.652 13.7685 126.413 13.6946 126.103 13.6946C125.777 13.6946 125.517 13.767 125.324 13.9119C125.13 14.054 125.002 14.233 124.94 14.4489L123.261 14.3125C123.346 13.9148 123.514 13.571 123.764 13.2812C124.014 12.9886 124.336 12.7642 124.731 12.608C125.129 12.4489 125.589 12.3693 126.112 12.3693C126.475 12.3693 126.824 12.4119 127.156 12.4972C127.491 12.5824 127.788 12.7145 128.047 12.8935C128.308 13.0724 128.514 13.3026 128.664 13.5838C128.815 13.8622 128.89 14.196 128.89 14.5852V19H127.169V18.0923H127.118C127.012 18.2969 126.872 18.4773 126.696 18.6335C126.52 18.7869 126.308 18.9077 126.061 18.9957C125.814 19.081 125.528 19.1236 125.204 19.1236ZM125.724 17.8707C125.991 17.8707 126.227 17.8182 126.431 17.7131C126.636 17.6051 126.797 17.4602 126.913 17.2784C127.029 17.0966 127.088 16.8906 127.088 16.6605V15.9659C127.031 16.0028 126.953 16.0369 126.853 16.0682C126.757 16.0966 126.647 16.1236 126.525 16.1491C126.403 16.1719 126.281 16.1932 126.159 16.2131C126.037 16.2301 125.926 16.2457 125.826 16.2599C125.613 16.2912 125.427 16.3409 125.268 16.4091C125.109 16.4773 124.985 16.5696 124.897 16.6861C124.809 16.7997 124.765 16.9418 124.765 17.1122C124.765 17.3594 124.855 17.5483 125.034 17.679C125.216 17.8068 125.446 17.8707 125.724 17.8707ZM132.114 10.2727V19H130.299V10.2727H132.114ZM136.551 19.1278C135.878 19.1278 135.298 18.9915 134.812 18.7188C134.33 18.4432 133.957 18.054 133.696 17.5511C133.435 17.0455 133.304 16.4474 133.304 15.7571C133.304 15.0838 133.435 14.4929 133.696 13.9844C133.957 13.4759 134.325 13.0795 134.8 12.7955C135.277 12.5114 135.837 12.3693 136.479 12.3693C136.911 12.3693 137.313 12.4389 137.685 12.5781C138.06 12.7145 138.386 12.9205 138.665 13.196C138.946 13.4716 139.165 13.8182 139.321 14.2358C139.477 14.6506 139.555 15.1364 139.555 15.6932V16.1918H134.028V15.0668H137.847C137.847 14.8054 137.79 14.5739 137.676 14.3722C137.563 14.1705 137.405 14.0128 137.203 13.8991C137.004 13.7827 136.773 13.7244 136.509 13.7244C136.233 13.7244 135.989 13.7884 135.776 13.9162C135.565 14.0412 135.401 14.2102 135.281 14.4233C135.162 14.6335 135.101 14.8679 135.098 15.1264V16.196C135.098 16.5199 135.158 16.7997 135.277 17.0355C135.399 17.2713 135.571 17.4531 135.793 17.581C136.014 17.7088 136.277 17.7727 136.581 17.7727C136.783 17.7727 136.967 17.7443 137.135 17.6875C137.303 17.6307 137.446 17.5455 137.565 17.4318C137.685 17.3182 137.776 17.179 137.838 17.0142L139.517 17.125C139.432 17.5284 139.257 17.8807 138.993 18.1818C138.732 18.4801 138.393 18.7131 137.979 18.8807C137.567 19.0455 137.091 19.1278 136.551 19.1278Z" fill="black"/>
<path d="M67.0227 33C66.929 32.7131 66.8054 32.456 66.652 32.2287C66.5014 31.9986 66.321 31.8026 66.1108 31.6406C65.9034 31.4787 65.6676 31.3551 65.4034 31.2699C65.1392 31.1847 64.8494 31.142 64.5341 31.142C64.017 31.142 63.5469 31.2756 63.1236 31.5426C62.7003 31.8097 62.3636 32.2031 62.1136 32.723C61.8636 33.2429 61.7386 33.8807 61.7386 34.6364C61.7386 35.392 61.8651 36.0298 62.1179 36.5497C62.3707 37.0696 62.7131 37.4631 63.1449 37.7301C63.5767 37.9972 64.0625 38.1307 64.6023 38.1307C65.1023 38.1307 65.5426 38.0241 65.9233 37.8111C66.3068 37.5952 66.6051 37.2912 66.8182 36.8991C67.0341 36.5043 67.142 36.0398 67.142 35.5057L67.4659 35.5739H64.8409V34.6364H68.1648V35.5739C68.1648 36.2926 68.0114 36.9176 67.7045 37.4489C67.4006 37.9801 66.9801 38.392 66.4432 38.6847C65.9091 38.9744 65.2955 39.1193 64.6023 39.1193C63.8295 39.1193 63.1506 38.9375 62.5653 38.5739C61.983 38.2102 61.5284 37.6932 61.2017 37.0227C60.8778 36.3523 60.7159 35.5568 60.7159 34.6364C60.7159 33.946 60.8082 33.3253 60.9929 32.7741C61.1804 32.2202 61.4446 31.7486 61.7855 31.3594C62.1264 30.9702 62.5298 30.6719 62.9957 30.4645C63.4616 30.2571 63.9744 30.1534 64.5341 30.1534C64.9943 30.1534 65.4233 30.223 65.821 30.3622C66.2216 30.4986 66.5781 30.6932 66.8906 30.946C67.206 31.196 67.4688 31.4957 67.679 31.8452C67.8892 32.1918 68.0341 32.5767 68.1136 33H67.0227ZM69.8384 39V32.4545H70.81V33.4432H70.8782C70.9975 33.1193 71.2134 32.8565 71.5259 32.6548C71.8384 32.4531 72.1907 32.3523 72.5827 32.3523C72.6566 32.3523 72.7489 32.3537 72.8597 32.3565C72.9705 32.3594 73.0543 32.3636 73.1112 32.3693V33.392C73.0771 33.3835 72.9989 33.3707 72.8768 33.3537C72.7575 33.3338 72.631 33.3239 72.4975 33.3239C72.1793 33.3239 71.8952 33.3906 71.6452 33.5241C71.3981 33.6548 71.2021 33.8366 71.0572 34.0696C70.9151 34.2997 70.8441 34.5625 70.8441 34.858V39H69.8384ZM76.7631 39.1364C76.1722 39.1364 75.6538 38.9957 75.2077 38.7145C74.7646 38.4332 74.418 38.0398 74.168 37.5341C73.9208 37.0284 73.7972 36.4375 73.7972 35.7614C73.7972 35.0795 73.9208 34.4844 74.168 33.9759C74.418 33.4673 74.7646 33.0724 75.2077 32.7912C75.6538 32.5099 76.1722 32.3693 76.7631 32.3693C77.354 32.3693 77.8711 32.5099 78.3143 32.7912C78.7603 33.0724 79.1069 33.4673 79.354 33.9759C79.604 34.4844 79.729 35.0795 79.729 35.7614C79.729 36.4375 79.604 37.0284 79.354 37.5341C79.1069 38.0398 78.7603 38.4332 78.3143 38.7145C77.8711 38.9957 77.354 39.1364 76.7631 39.1364ZM76.7631 38.233C77.212 38.233 77.5813 38.1179 77.8711 37.8878C78.1609 37.6577 78.3754 37.3551 78.5146 36.9801C78.6538 36.6051 78.7234 36.1989 78.7234 35.7614C78.7234 35.3239 78.6538 34.9162 78.5146 34.5384C78.3754 34.1605 78.1609 33.8551 77.8711 33.6222C77.5813 33.3892 77.212 33.2727 76.7631 33.2727C76.3143 33.2727 75.945 33.3892 75.6552 33.6222C75.3654 33.8551 75.1509 34.1605 75.0117 34.5384C74.8725 34.9162 74.8029 35.3239 74.8029 35.7614C74.8029 36.1989 74.8725 36.6051 75.0117 36.9801C75.1509 37.3551 75.3654 37.6577 75.6552 37.8878C75.945 38.1179 76.3143 38.233 76.7631 38.233ZM82.5245 39L80.5302 32.4545H81.587L83.0018 37.4659H83.07L84.4677 32.4545H85.5415L86.9222 37.4489H86.9904L88.4052 32.4545H89.462L87.4677 39H86.479L85.0472 33.9716H84.945L83.5131 39H82.5245ZM93.6381 32.4545V33.3068H90.2461V32.4545H93.6381ZM91.2347 30.8864H92.2404V37.125C92.2404 37.4091 92.2816 37.6222 92.364 37.7642C92.4492 37.9034 92.5572 37.9972 92.6879 38.0455C92.8214 38.0909 92.962 38.1136 93.1097 38.1136C93.2205 38.1136 93.3114 38.108 93.3825 38.0966C93.4535 38.0824 93.5103 38.071 93.5529 38.0625L93.7575 38.9659C93.6893 38.9915 93.5941 39.017 93.4719 39.0426C93.3498 39.071 93.195 39.0852 93.0075 39.0852C92.7234 39.0852 92.445 39.0241 92.1722 38.902C91.9023 38.7798 91.6779 38.5938 91.4989 38.3438C91.3228 38.0938 91.2347 37.7784 91.2347 37.3977V30.8864ZM96.2972 35.0625V39H95.2915V30.2727H96.2972V33.4773H96.3825C96.5359 33.1392 96.766 32.8707 97.0728 32.6719C97.3825 32.4702 97.7944 32.3693 98.3086 32.3693C98.7546 32.3693 99.1452 32.4588 99.4805 32.6378C99.8157 32.8139 100.076 33.0852 100.26 33.4517C100.448 33.8153 100.542 34.2784 100.542 34.8409V39H99.5359V34.9091C99.5359 34.3892 99.4009 33.9872 99.131 33.7031C98.864 33.4162 98.4933 33.2727 98.0188 33.2727C97.6893 33.2727 97.3938 33.3423 97.1325 33.4815C96.8739 33.6207 96.6694 33.8239 96.5188 34.0909C96.3711 34.358 96.2972 34.6818 96.2972 35.0625ZM108.228 39.1193C107.654 39.1193 107.16 39.0142 106.745 38.804C106.33 38.5937 106.011 38.3054 105.786 37.9389C105.562 37.5724 105.45 37.1534 105.45 36.6818C105.45 36.3182 105.526 35.9957 105.68 35.7145C105.836 35.4304 106.05 35.1676 106.323 34.9261C106.599 34.6818 106.915 34.4375 107.273 34.1932L108.535 33.2557C108.782 33.0937 108.979 32.9205 109.127 32.7358C109.278 32.5511 109.353 32.3097 109.353 32.0114C109.353 31.7898 109.255 31.5753 109.059 31.3679C108.866 31.1605 108.612 31.0568 108.296 31.0568C108.075 31.0568 107.879 31.1136 107.708 31.2273C107.54 31.3381 107.408 31.4801 107.312 31.6534C107.218 31.8239 107.171 32 107.171 32.1818C107.171 32.3864 107.227 32.5938 107.337 32.804C107.451 33.0114 107.594 33.2244 107.768 33.4432C107.944 33.6591 108.126 33.8807 108.313 34.108L112.319 39H111.109L107.802 35.0114C107.495 34.642 107.217 34.3068 106.967 34.0057C106.717 33.7045 106.518 33.4077 106.37 33.1151C106.222 32.8224 106.148 32.5057 106.148 32.1648C106.148 31.7727 106.235 31.429 106.408 31.1335C106.585 30.8352 106.83 30.6037 107.146 30.4389C107.464 30.2713 107.836 30.1875 108.262 30.1875C108.7 30.1875 109.076 30.2727 109.391 30.4432C109.707 30.6108 109.95 30.8338 110.12 31.1122C110.29 31.3878 110.376 31.6875 110.376 32.0114C110.376 32.429 110.272 32.7912 110.065 33.098C109.857 33.4048 109.575 33.6903 109.217 33.9545L107.478 35.25C107.086 35.5398 106.82 35.821 106.681 36.0938C106.542 36.3665 106.472 36.5625 106.472 36.6818C106.472 36.9545 106.543 37.2088 106.685 37.4446C106.827 37.6804 107.028 37.8707 107.286 38.0156C107.545 38.1605 107.847 38.233 108.194 38.233C108.523 38.233 108.844 38.1634 109.157 38.0241C109.469 37.8821 109.752 37.6776 110.005 37.4105C110.261 37.1435 110.462 36.8224 110.61 36.4474C110.761 36.0724 110.836 35.6506 110.836 35.1818H111.808C111.808 35.7614 111.741 36.2344 111.607 36.6009C111.474 36.9673 111.323 37.2543 111.156 37.4616C110.988 37.669 110.853 37.8239 110.751 37.9261C110.717 37.9687 110.685 38.0114 110.657 38.054C110.629 38.0966 110.597 38.1392 110.563 38.1818C110.282 38.4972 109.927 38.733 109.498 38.8892C109.069 39.0426 108.646 39.1193 108.228 39.1193ZM116.944 30.2727H118.205L121.171 37.517H121.273L124.239 30.2727H125.5V39H124.512V32.3693H124.426L121.699 39H120.745L118.017 32.3693H117.932V39H116.944V30.2727ZM129.409 39.1534C128.994 39.1534 128.618 39.0753 128.28 38.919C127.942 38.7599 127.673 38.5312 127.474 38.233C127.276 37.9318 127.176 37.5682 127.176 37.142C127.176 36.767 127.25 36.4631 127.398 36.2301C127.545 35.9943 127.743 35.8097 127.99 35.6761C128.237 35.5426 128.51 35.4432 128.808 35.3778C129.109 35.3097 129.412 35.2557 129.716 35.2159C130.114 35.1648 130.436 35.1264 130.683 35.1009C130.933 35.0724 131.115 35.0256 131.229 34.9602C131.345 34.8949 131.403 34.7812 131.403 34.6193V34.5852C131.403 34.1648 131.288 33.8381 131.058 33.6051C130.831 33.3722 130.486 33.2557 130.023 33.2557C129.543 33.2557 129.166 33.3608 128.893 33.571C128.621 33.7812 128.429 34.0057 128.318 34.2443L127.364 33.9034C127.534 33.5057 127.761 33.196 128.045 32.9744C128.332 32.75 128.645 32.5937 128.983 32.5057C129.324 32.4148 129.659 32.3693 129.989 32.3693C130.199 32.3693 130.44 32.3949 130.713 32.446C130.989 32.4943 131.254 32.5952 131.51 32.7486C131.768 32.902 131.983 33.1335 132.153 33.4432C132.324 33.7528 132.409 34.1676 132.409 34.6875V39H131.403V38.1136H131.352C131.284 38.2557 131.17 38.4077 131.011 38.5696C130.852 38.7315 130.641 38.8693 130.376 38.983C130.112 39.0966 129.79 39.1534 129.409 39.1534ZM129.562 38.25C129.96 38.25 130.295 38.1719 130.568 38.0156C130.844 37.8594 131.051 37.6577 131.19 37.4105C131.332 37.1634 131.403 36.9034 131.403 36.6307V35.7102C131.361 35.7614 131.267 35.8082 131.122 35.8509C130.98 35.8906 130.815 35.9261 130.628 35.9574C130.443 35.9858 130.263 36.0114 130.087 36.0341C129.913 36.054 129.773 36.071 129.665 36.0852C129.403 36.1193 129.159 36.1747 128.932 36.2514C128.707 36.3253 128.526 36.4375 128.386 36.5881C128.25 36.7358 128.182 36.9375 128.182 37.1932C128.182 37.5426 128.311 37.8068 128.57 37.9858C128.831 38.1619 129.162 38.25 129.562 38.25ZM134.245 39V32.4545H135.216V33.4432H135.284C135.404 33.1193 135.62 32.8565 135.932 32.6548C136.245 32.4531 136.597 32.3523 136.989 32.3523C137.063 32.3523 137.155 32.3537 137.266 32.3565C137.377 32.3594 137.461 32.3636 137.517 32.3693V33.392C137.483 33.3835 137.405 33.3707 137.283 33.3537C137.164 33.3338 137.037 33.3239 136.904 33.3239C136.586 33.3239 136.301 33.3906 136.051 33.5241C135.804 33.6548 135.608 33.8366 135.463 34.0696C135.321 34.2997 135.25 34.5625 135.25 34.858V39H134.245ZM139.647 36.6136L139.63 35.3693H139.835L142.698 32.4545H143.942L140.891 35.5398H140.806L139.647 36.6136ZM138.71 39V30.2727H139.715V39H138.71ZM142.869 39L140.312 35.7614L141.028 35.0625L144.147 39H142.869ZM147.712 39.1364C147.081 39.1364 146.537 38.9972 146.08 38.7188C145.625 38.4375 145.274 38.0455 145.027 37.5426C144.783 37.0369 144.661 36.4489 144.661 35.7784C144.661 35.108 144.783 34.517 145.027 34.0057C145.274 33.4915 145.618 33.0909 146.058 32.804C146.501 32.5142 147.018 32.3693 147.609 32.3693C147.95 32.3693 148.287 32.4261 148.619 32.5398C148.952 32.6534 149.254 32.8381 149.527 33.0938C149.8 33.3466 150.017 33.6818 150.179 34.0994C150.341 34.517 150.422 35.0312 150.422 35.642V36.0682H145.376V35.1989H149.399C149.399 34.8295 149.325 34.5 149.178 34.2102C149.033 33.9205 148.825 33.6918 148.555 33.5241C148.288 33.3565 147.973 33.2727 147.609 33.2727C147.209 33.2727 146.862 33.3722 146.57 33.571C146.28 33.767 146.057 34.0227 145.901 34.3381C145.744 34.6534 145.666 34.9915 145.666 35.3523V35.9318C145.666 36.4261 145.751 36.8452 145.922 37.1889C146.095 37.5298 146.335 37.7898 146.642 37.9688C146.949 38.1449 147.305 38.233 147.712 38.233C147.976 38.233 148.214 38.196 148.428 38.1222C148.643 38.0455 148.83 37.9318 148.986 37.7812C149.142 37.6278 149.263 37.4375 149.348 37.2102L150.32 37.483C150.217 37.8125 150.045 38.1023 149.804 38.3523C149.563 38.5994 149.264 38.7926 148.909 38.9318C148.554 39.0682 148.155 39.1364 147.712 39.1364ZM154.798 32.4545V33.3068H151.406V32.4545H154.798ZM152.395 30.8864H153.401V37.125C153.401 37.4091 153.442 37.6222 153.524 37.7642C153.609 37.9034 153.717 37.9972 153.848 38.0455C153.982 38.0909 154.122 38.1136 154.27 38.1136C154.381 38.1136 154.472 38.108 154.543 38.0966C154.614 38.0824 154.67 38.071 154.713 38.0625L154.918 38.9659C154.849 38.9915 154.754 39.017 154.632 39.0426C154.51 39.071 154.355 39.0852 154.168 39.0852C153.884 39.0852 153.605 39.0241 153.332 38.902C153.063 38.7798 152.838 38.5938 152.659 38.3438C152.483 38.0938 152.395 37.7784 152.395 37.3977V30.8864ZM156.311 39V32.4545H157.317V39H156.311ZM156.822 31.3636C156.626 31.3636 156.457 31.2969 156.315 31.1634C156.176 31.0298 156.107 30.8693 156.107 30.6818C156.107 30.4943 156.176 30.3338 156.315 30.2003C156.457 30.0668 156.626 30 156.822 30C157.018 30 157.186 30.0668 157.325 30.2003C157.467 30.3338 157.538 30.4943 157.538 30.6818C157.538 30.8693 157.467 31.0298 157.325 31.1634C157.186 31.2969 157.018 31.3636 156.822 31.3636ZM160.164 35.0625V39H159.159V32.4545H160.13V33.4773H160.216C160.369 33.1449 160.602 32.8778 160.914 32.6761C161.227 32.4716 161.63 32.3693 162.125 32.3693C162.568 32.3693 162.956 32.4602 163.288 32.642C163.62 32.821 163.879 33.0938 164.064 33.4602C164.248 33.8239 164.341 34.2841 164.341 34.8409V39H163.335V34.9091C163.335 34.3949 163.201 33.9943 162.934 33.7074C162.667 33.4176 162.301 33.2727 161.835 33.2727C161.514 33.2727 161.227 33.3423 160.974 33.4815C160.724 33.6207 160.527 33.8239 160.382 34.0909C160.237 34.358 160.164 34.6818 160.164 35.0625ZM168.82 41.5909C168.335 41.5909 167.917 41.5284 167.567 41.4034C167.218 41.2812 166.927 41.1193 166.694 40.9176C166.464 40.7188 166.281 40.5057 166.144 40.2784L166.945 39.7159C167.036 39.8352 167.151 39.9716 167.29 40.125C167.43 40.2812 167.62 40.4162 167.862 40.5298C168.106 40.6463 168.425 40.7045 168.82 40.7045C169.349 40.7045 169.785 40.5767 170.129 40.321C170.472 40.0653 170.644 39.6648 170.644 39.1193V37.7898H170.559C170.485 37.9091 170.38 38.0568 170.244 38.233C170.11 38.4062 169.917 38.5611 169.664 38.6974C169.414 38.831 169.076 38.8977 168.65 38.8977C168.121 38.8977 167.647 38.7727 167.227 38.5227C166.809 38.2727 166.478 37.9091 166.234 37.4318C165.992 36.9545 165.871 36.375 165.871 35.6932C165.871 35.0227 165.989 34.4389 166.225 33.9418C166.461 33.4418 166.789 33.0554 167.21 32.7827C167.63 32.5071 168.116 32.3693 168.667 32.3693C169.093 32.3693 169.431 32.4403 169.681 32.5824C169.934 32.7216 170.127 32.8807 170.261 33.0597C170.397 33.2358 170.502 33.3807 170.576 33.4943H170.678V32.4545H171.65V39.1875C171.65 39.75 171.522 40.2074 171.266 40.5597C171.013 40.9148 170.673 41.1747 170.244 41.3395C169.817 41.5071 169.343 41.5909 168.82 41.5909ZM168.786 37.9943C169.19 37.9943 169.531 37.902 169.809 37.7173C170.087 37.5327 170.299 37.267 170.444 36.9205C170.589 36.5739 170.661 36.1591 170.661 35.6761C170.661 35.2045 170.59 34.7884 170.448 34.4276C170.306 34.0668 170.096 33.7841 169.817 33.5795C169.539 33.375 169.195 33.2727 168.786 33.2727C168.36 33.2727 168.005 33.3807 167.721 33.5966C167.44 33.8125 167.228 34.1023 167.086 34.4659C166.947 34.8295 166.877 35.233 166.877 35.6761C166.877 36.1307 166.948 36.5327 167.09 36.8821C167.235 37.2287 167.448 37.5014 167.729 37.7003C168.013 37.8963 168.366 37.9943 168.786 37.9943Z" fill="black"/>
</svg>
